<?xml version="1.0" encoding="utf-8"?>
<!-- Generator: Adobe Illustrator 16.0.0, SVG Export Plug-In . SVG Version: 6.00 Build 0)  -->
<!DOCTYPE svg PUBLIC "-//W3C//DTD SVG 1.1//EN" "http://www.w3.org/Graphics/SVG/1.1/DTD/svg11.dtd">
<svg version="1.1" xmlns="http://www.w3.org/2000/svg" xmlns:xlink="http://www.w3.org/1999/xlink" x="0px" y="0px" width="60px"
	 height="60px" viewBox="0 0 60 60" enable-background="new 0 0 60 60" xml:space="preserve">
<g id="Layer_1">
</g>
<g id="txt">
	<linearGradient id="SVGID_2_" gradientUnits="userSpaceOnUse" x1="30" y1="58.4277" x2="30" y2="6.3544">
		<stop  offset="0" style="stop-color:#477256"/>
		<stop  offset="1" style="stop-color:#135D6B"/>
	</linearGradient>
	<rect fill="url(#SVGID_2_)" width="60" height="60"/>
	<g>
		<path fill="#FFFFFF" d="M47.678,49.463c0,1.09-0.877,1.974-1.959,1.974H14.283c-1.084,0-1.961-0.884-1.961-1.974v-27.47
			c0-1.09,0.877-1.974,1.961-1.974h31.436c1.082,0,1.959,0.884,1.959,1.974V49.463z"/>
		<g>
			<g>
				<path fill="none" stroke="#293F54" stroke-width="0.5669" stroke-miterlimit="10" d="M45.875,48.728c0,0.552-0.448,1-1,1H15.313
					c-0.552,0-1-0.448-1-1v-26c0-0.552,0.448-1,1-1h29.563c0.552,0,1,0.448,1,1V48.728z"/>
				
					<line fill="none" stroke="#293F54" stroke-width="0.5669" stroke-miterlimit="10" x1="14.125" y1="28.666" x2="45.813" y2="28.666"/>
				<circle fill="#00B1CC" cx="16.875" cy="25.291" r="0.813"/>
				<circle fill="#00B1CC" cx="20.875" cy="25.291" r="0.813"/>
				<circle fill="#00B1CC" cx="24.875" cy="25.291" r="0.813"/>
				<circle fill="#293F54" cx="30.25" cy="25.291" r="0.5"/>
				<circle fill="#293F54" cx="32.774" cy="25.291" r="0.5"/>
				<circle fill="#293F54" cx="35.3" cy="25.291" r="0.5"/>
				<circle fill="#293F54" cx="37.825" cy="25.291" r="0.5"/>
				<circle fill="#293F54" cx="40.351" cy="25.291" r="0.5"/>
				<circle fill="#293F54" cx="42.875" cy="25.291" r="0.5"/>
			</g>
			<g>
				
					<path fill="none" stroke="#293F54" stroke-width="0.4544" stroke-linecap="round" stroke-linejoin="round" stroke-miterlimit="10" d="
					M43.419,46.185c0,0.782-0.635,1.417-1.418,1.417H24.549c-0.783,0-1.418-0.635-1.418-1.417v-9.582
					c0-0.782,0.635-1.417,1.418-1.417h17.452c0.783,0,1.418,0.635,1.418,1.417V46.185z"/>
				<path fill="#FFC500" d="M42.272,45.311c0,0.64-0.563,1.159-1.257,1.159H25.534c-0.695,0-1.258-0.519-1.258-1.159v-7.834
					c0-0.64,0.563-1.159,1.258-1.159h15.481c0.694,0,1.257,0.519,1.257,1.159V45.311z"/>
				<text transform="matrix(1 0 0 1 25.7139 44.6436)"><tspan x="0" y="0" fill="#293F54" font-family="'Montserrat-Bold'" font-size="3.8272">c</tspan><tspan x="2.751" y="0" fill="#293F54" font-family="'Montserrat-Bold'" font-size="3.8272">ard</tspan></text>
				
					<path fill="none" stroke="#293F54" stroke-width="0.4544" stroke-linecap="round" stroke-linejoin="round" stroke-miterlimit="10" d="
					M43.419,46.185c0,0.782-0.635,1.417-1.418,1.417H24.549c-0.783,0-1.418-0.635-1.418-1.417v-9.582
					c0-0.782,0.635-1.417,1.418-1.417h17.452c0.783,0,1.418,0.635,1.418,1.417V46.185z"/>
				<path fill="#00B1CC" d="M42.272,45.311c0,0.64-0.563,1.159-1.257,1.159H25.534c-0.695,0-1.258-0.519-1.258-1.159v-7.834
					c0-0.64,0.563-1.159,1.258-1.159h15.481c0.694,0,1.257,0.519,1.257,1.159V45.311z"/>
				<text transform="matrix(1 0 0 1 25.7139 41.3936)"><tspan x="0" y="0" fill="#293F54" font-family="'Montserrat-Bold'" font-size="3.8272">gi</tspan><tspan x="4.205" y="0" fill="#293F54" font-family="'Montserrat-Bold'" font-size="3.8272">f</tspan><tspan x="6.67" y="0" fill="#293F54" font-family="'Montserrat-Bold'" font-size="3.8272">t</tspan></text>
				<g>
					<path fill="#FFFFFF" d="M38.618,43.445h0.59v1.206h0.512c-0.026-0.09-0.039-0.194-0.039-0.311c0-0.294,0.088-0.547,0.266-0.76
						c0.178-0.212,0.418-0.319,0.719-0.319c0.303,0,0.551,0.11,0.748,0.33c0.196,0.22,0.295,0.491,0.295,0.815
						c0,0.414-0.153,0.759-0.459,1.035l-0.498-0.358c0.025-0.026,0.059-0.062,0.096-0.105c0.038-0.044,0.088-0.124,0.15-0.24
						c0.063-0.117,0.095-0.233,0.095-0.35c0-0.117-0.035-0.22-0.104-0.311c-0.07-0.09-0.174-0.135-0.311-0.135
						s-0.242,0.049-0.316,0.146s-0.111,0.224-0.111,0.378s0.055,0.333,0.166,0.538l-0.307,0.284h-1.49V43.445z"/>
					<path fill="#FFFFFF" d="M41.708,41.544c0,0.422-0.144,0.738-0.431,0.948c-0.286,0.209-0.67,0.314-1.149,0.314
						c-0.479,0-0.861-0.105-1.148-0.314c-0.287-0.21-0.432-0.526-0.432-0.948s0.145-0.739,0.432-0.948
						c0.287-0.21,0.67-0.315,1.148-0.315c0.479,0,0.863,0.105,1.149,0.315C41.564,40.806,41.708,41.122,41.708,41.544z
						 M39.392,41.994c0.187,0.096,0.434,0.145,0.738,0.145c0.307,0,0.553-0.048,0.738-0.145c0.188-0.096,0.28-0.246,0.28-0.45
						c0-0.204-0.093-0.354-0.28-0.45c-0.186-0.096-0.432-0.145-0.738-0.145c-0.305,0-0.552,0.048-0.738,0.145
						c-0.186,0.096-0.279,0.246-0.279,0.45C39.112,41.748,39.206,41.898,39.392,41.994z"/>
					<path fill="#FFFFFF" d="M40.013,39.835h-0.367v-0.424c-0.332-0.087-0.598-0.254-0.798-0.5c-0.199-0.246-0.3-0.545-0.3-0.898
						c0-0.437,0.177-0.812,0.529-1.123l0.507,0.389c-0.259,0.213-0.389,0.463-0.389,0.751c0,0.327,0.149,0.552,0.45,0.677V37.69
						h0.367v1.097c0.029,0.003,0.072,0.004,0.131,0.004s0.101-0.001,0.127-0.004V37.69h0.367v0.997
						c0.137-0.07,0.241-0.166,0.314-0.286c0.072-0.121,0.109-0.254,0.109-0.4c0-0.289-0.115-0.524-0.346-0.708l0.445-0.402
						c0.184,0.157,0.32,0.338,0.411,0.544c0.091,0.205,0.136,0.41,0.136,0.614c0,0.329-0.098,0.616-0.291,0.861
						s-0.453,0.412-0.779,0.502v0.424h-0.367v-0.367c-0.026,0.003-0.068,0.004-0.127,0.004s-0.102-0.001-0.131-0.004V39.835z"/>
				</g>
			</g>
			<g>
				
					<path fill="none" stroke="#293F54" stroke-width="0.4544" stroke-linecap="round" stroke-linejoin="round" stroke-miterlimit="10" d="
					M37.163,42.935c0,0.782-0.635,1.417-1.418,1.417H18.293c-0.783,0-1.418-0.635-1.418-1.417v-9.582
					c0-0.782,0.635-1.417,1.418-1.417h17.452c0.783,0,1.418,0.635,1.418,1.417V42.935z"/>
				<path fill="#FFC500" d="M36.017,42.061c0,0.64-0.563,1.159-1.257,1.159H19.278c-0.695,0-1.258-0.519-1.258-1.159v-7.834
					c0-0.64,0.563-1.159,1.258-1.159H34.76c0.694,0,1.257,0.519,1.257,1.159V42.061z"/>
				<text transform="matrix(1 0 0 1 19.458 41.3936)"><tspan x="0" y="0" fill="#293F54" font-family="'Montserrat-Bold'" font-size="3.8272">c</tspan><tspan x="2.751" y="0" fill="#293F54" font-family="'Montserrat-Bold'" font-size="3.8272">ard</tspan></text>
				
					<path fill="#FFFFFF" stroke="#293F54" stroke-width="0.4544" stroke-linecap="round" stroke-linejoin="round" stroke-miterlimit="10" d="
					M37.163,42.935c0,0.782-0.635,1.417-1.418,1.417H18.293c-0.783,0-1.418-0.635-1.418-1.417v-9.582
					c0-0.782,0.635-1.417,1.418-1.417h17.452c0.783,0,1.418,0.635,1.418,1.417V42.935z"/>
				<path fill="#FFC500" d="M36.017,42.061c0,0.64-0.563,1.159-1.257,1.159H19.278c-0.695,0-1.258-0.519-1.258-1.159v-7.834
					c0-0.64,0.563-1.159,1.258-1.159H34.76c0.694,0,1.257,0.519,1.257,1.159V42.061z"/>
				<g>
					<path fill="#293F54" d="M21.524,36.781h0.601v0.949c-0.265,0.296-0.633,0.444-1.103,0.444c-0.393,0-0.723-0.13-0.988-0.391
						c-0.268-0.26-0.4-0.589-0.4-0.985c0-0.397,0.136-0.728,0.407-0.993c0.272-0.266,0.6-0.398,0.983-0.398
						c0.385,0,0.718,0.126,1.001,0.379l-0.31,0.448c-0.12-0.104-0.23-0.177-0.331-0.216s-0.21-0.06-0.327-0.06
						c-0.228,0-0.419,0.078-0.574,0.232c-0.156,0.154-0.233,0.357-0.233,0.61c0,0.252,0.074,0.455,0.224,0.606
						s0.327,0.228,0.533,0.228c0.207,0,0.379-0.04,0.518-0.119V36.781z"/>
					<path fill="#293F54" d="M22.657,35.468h0.598v2.675h-0.598V35.468z"/>
					<path fill="#293F54" d="M25.749,35.468v0.524H24.51v0.578h1.179v0.524H24.51v1.049h-0.597v-2.675H25.749z"/>
					<path fill="#293F54" d="M27.388,35.985v2.159H26.79v-2.159h-0.758v-0.517h2.113v0.517H27.388z"/>
				</g>
				<g>
					<path fill="#293F54" d="M21.015,40.865c0.294,0,0.533-0.116,0.721-0.348l0.383,0.394c-0.305,0.342-0.662,0.513-1.074,0.513
						s-0.752-0.13-1.018-0.391c-0.268-0.26-0.4-0.589-0.4-0.985c0-0.397,0.136-0.728,0.408-0.993
						c0.271-0.266,0.604-0.398,0.996-0.398c0.439,0,0.807,0.167,1.103,0.501l-0.371,0.421c-0.188-0.235-0.424-0.352-0.704-0.352
						c-0.225,0-0.417,0.073-0.576,0.22c-0.16,0.147-0.239,0.345-0.239,0.593c0,0.249,0.075,0.449,0.226,0.599
						S20.801,40.865,21.015,40.865z"/>
					<path fill="#293F54" d="M24.475,41.394l-0.249-0.578h-1.121l-0.248,0.578h-0.636l1.155-2.675h0.578l1.156,2.675H24.475z
						 M23.667,39.514l-0.336,0.777h0.67L23.667,39.514z"/>
					<path fill="#293F54" d="M27.59,39.606c0,0.428-0.169,0.705-0.509,0.83l0.678,0.957h-0.735l-0.593-0.854h-0.414v0.854H25.42
						v-2.675h1.015c0.416,0,0.712,0.07,0.89,0.21C27.501,39.069,27.59,39.295,27.59,39.606z M26.87,39.924
						c0.074-0.066,0.111-0.171,0.111-0.316c0-0.144-0.038-0.243-0.115-0.296c-0.076-0.054-0.21-0.081-0.401-0.081h-0.448v0.792
						h0.437C26.657,40.023,26.796,39.99,26.87,39.924z"/>
					<path fill="#293F54" d="M30.246,39.068c0.255,0.233,0.382,0.558,0.382,0.974s-0.123,0.745-0.373,0.987
						c-0.248,0.243-0.628,0.364-1.139,0.364h-0.914v-2.675h0.945C29.624,38.718,29.991,38.835,30.246,39.068z M29.808,40.659
						c0.146-0.138,0.221-0.338,0.221-0.601c0-0.263-0.074-0.465-0.221-0.606s-0.371-0.212-0.676-0.212H28.8v1.626h0.379
						C29.451,40.865,29.661,40.796,29.808,40.659z"/>
				</g>
				<g>
					<path fill="#FFFFFF" d="M32.944,42.079h-0.582v-1.87h0.473l0.712,0.625c0.04-0.245,0.144-0.434,0.308-0.568
						c0.165-0.134,0.355-0.201,0.57-0.201c0.32,0,0.572,0.109,0.754,0.326c0.182,0.217,0.273,0.495,0.273,0.833
						s-0.119,0.68-0.358,1.027l-0.542-0.28c0.204-0.289,0.307-0.546,0.307-0.773c0-0.137-0.034-0.25-0.102-0.338
						c-0.066-0.089-0.164-0.133-0.29-0.133c-0.127,0-0.228,0.051-0.302,0.153s-0.111,0.243-0.111,0.424
						c0,0.096,0.027,0.231,0.083,0.406h-0.503l-0.689-0.585V42.079z"/>
					<path fill="#FFFFFF" d="M35.452,38.316c0,0.422-0.144,0.738-0.431,0.948c-0.286,0.209-0.67,0.314-1.149,0.314
						c-0.479,0-0.861-0.105-1.148-0.314c-0.287-0.21-0.432-0.526-0.432-0.948s0.145-0.739,0.432-0.948
						c0.287-0.21,0.67-0.315,1.148-0.315c0.479,0,0.863,0.105,1.149,0.315C35.309,37.578,35.452,37.894,35.452,38.316z
						 M33.136,38.766c0.187,0.096,0.434,0.145,0.738,0.145c0.307,0,0.553-0.048,0.738-0.145c0.188-0.096,0.28-0.246,0.28-0.45
						c0-0.204-0.093-0.354-0.28-0.45c-0.186-0.096-0.432-0.145-0.738-0.145c-0.305,0-0.552,0.048-0.738,0.145
						c-0.186,0.096-0.279,0.246-0.279,0.45C32.856,38.52,32.95,38.67,33.136,38.766z"/>
					<path fill="#FFFFFF" d="M33.757,36.607H33.39v-0.424c-0.332-0.087-0.598-0.254-0.798-0.5c-0.199-0.246-0.3-0.545-0.3-0.898
						c0-0.437,0.177-0.812,0.529-1.123l0.507,0.389c-0.259,0.213-0.389,0.463-0.389,0.751c0,0.327,0.149,0.552,0.45,0.677v-1.018
						h0.367v1.097c0.029,0.003,0.072,0.004,0.131,0.004s0.101-0.001,0.127-0.004v-1.097h0.367v0.997
						c0.137-0.07,0.241-0.166,0.314-0.286c0.072-0.121,0.109-0.254,0.109-0.4c0-0.289-0.115-0.524-0.346-0.708l0.445-0.402
						c0.184,0.157,0.32,0.338,0.411,0.544c0.091,0.205,0.136,0.41,0.136,0.614c0,0.329-0.098,0.616-0.291,0.861
						s-0.453,0.412-0.779,0.502v0.424h-0.367v-0.367c-0.026,0.003-0.068,0.004-0.127,0.004s-0.102-0.001-0.131-0.004V36.607z"/>
				</g>
			</g>
		</g>
	</g>
	<path fill="#98C020" d="M29.011,7.008c0.309,0,0.575-0.107,0.8-0.324c0.199-0.191,0.304-0.392,0.313-0.6
		c0.009-0.141-0.046-0.281-0.163-0.418c-0.116-0.138-0.263-0.206-0.437-0.206c-0.3,0-0.573,0.1-0.819,0.3
		c-0.244,0.199-0.372,0.407-0.38,0.624C28.308,6.8,28.536,7.008,29.011,7.008z"/>
	<path fill="#FFFFFF" d="M37.515,11.228l-0.14-0.185c-0.095,0.108-0.214,0.225-0.361,0.348c-0.179,0.147-0.302,0.222-0.37,0.222
		c-0.094,0-0.154-0.02-0.178-0.06c-0.024-0.039-0.035-0.11-0.029-0.214c0-0.039,0.03-0.191,0.092-0.455
		c0.062-0.263,0.095-0.464,0.101-0.602c0.004-0.202-0.033-0.358-0.111-0.466C36.414,9.684,36.241,9.627,36,9.646
		c-0.281,0.025-0.574,0.136-0.88,0.333c-0.128,0.084-0.251,0.183-0.37,0.296c0.213-0.89,0.321-1.497,0.326-1.824
		c0.005-0.483-0.194-0.733-0.599-0.748c-0.458-0.016-0.794,0.243-1.006,0.776c0.089-0.04,0.174-0.06,0.251-0.06
		c0.064,0,0.131,0.04,0.2,0.118c0.103,0.124,0.146,0.313,0.125,0.57c-0.014,0.188-0.059,0.591-0.134,1.207
		c-0.016,0.154-0.032,0.296-0.046,0.428c-0.029,0.021-0.057,0.042-0.088,0.063c-0.374,0.249-0.716,0.374-1.022,0.374
		c-0.408,0-0.608-0.153-0.6-0.461c0.017-0.534,0.107-1.233,0.274-2.099h0.887c0.067,0,0.101-0.029,0.101-0.088l0.11-0.536
		c0.018-0.084-0.019-0.125-0.11-0.125h-0.837c0.199-0.949,0.337-1.607,0.411-1.974c0.017-0.066-0.033-0.1-0.148-0.1
		c-0.219,0-0.501,0.092-0.85,0.274c-0.375,0.2-0.58,0.4-0.612,0.6l-0.2,1.199h-0.513c-0.066,0-0.104,0.029-0.112,0.087l-0.112,0.537
		c-0.017,0.084,0.021,0.125,0.112,0.125h0.514c-0.126,0.723-0.222,1.32-0.285,1.796c-0.124,0.124-0.266,0.254-0.428,0.39
		c-0.299,0.249-0.507,0.374-0.623,0.374c-0.268,0-0.396-0.179-0.389-0.537c0.125-0.782,0.242-1.427,0.35-1.935
		c0.033-0.3-0.015-0.544-0.144-0.731c-0.129-0.187-0.33-0.269-0.604-0.243c-0.176,0.017-0.441,0.184-0.8,0.5
		c-0.266,0.241-0.533,0.482-0.8,0.724l0.288,0.338c0.232-0.176,0.374-0.263,0.424-0.263c0.15,0,0.225,0.108,0.225,0.324
		c0,0.042-0.081,0.351-0.243,0.924c-0.041,0.146-0.077,0.282-0.108,0.409c-0.375,0.26-0.856,0.531-1.446,0.815
		c0.301-0.991,0.466-1.915,0.499-2.772c0.026-0.69-0.282-1.045-0.923-1.062c-0.774-0.024-1.282,0.408-1.523,1.299
		c0.135-0.058,0.274-0.087,0.418-0.087c0.118,0,0.215,0.047,0.292,0.143c0.075,0.097,0.109,0.207,0.102,0.331
		c-0.009,0.325-0.175,0.673-0.497,1.043c-0.323,0.371-0.61,0.557-0.862,0.557c-0.176,0-0.261-0.15-0.252-0.45
		c0.009-0.158,0.063-0.479,0.162-0.962c0.091-0.457,0.137-0.766,0.137-0.924c0-0.274-0.07-0.497-0.211-0.668
		c-0.142-0.171-0.347-0.244-0.612-0.219c-0.184,0.017-0.454,0.184-0.812,0.5c-0.267,0.241-0.532,0.482-0.8,0.724l0.287,0.338
		c0.233-0.176,0.376-0.263,0.425-0.263c0.158,0,0.233,0.108,0.225,0.324c0,0.018-0.074,0.279-0.225,0.787
		c-0.149,0.508-0.228,0.887-0.236,1.137c-0.017,0.342,0.046,0.604,0.188,0.786c0.174,0.225,0.467,0.32,0.876,0.287
		c0.485-0.033,0.97-0.212,1.455-0.537c0.201-0.133,0.393-0.287,0.576-0.462c-0.066,0.333-0.146,0.616-0.236,0.85
		c-0.9,0.408-1.549,0.758-1.948,1.049c-0.566,0.407-0.87,0.845-0.911,1.311c-0.076,0.808,0.332,1.212,1.223,1.212
		c0.6,0,1.179-0.366,1.736-1.1c0.475-0.623,0.887-1.456,1.236-2.497c0.605-0.3,1.116-0.594,1.535-0.882
		c-0.014,0.097-0.022,0.183-0.024,0.258c-0.009,0.267,0.057,0.482,0.193,0.649c0.138,0.167,0.335,0.25,0.594,0.25
		c0.557,0,1.116-0.242,1.674-0.725c0.162-0.143,0.31-0.292,0.444-0.448c-0.007,0.107-0.01,0.199-0.009,0.273
		c0.009,0.6,0.358,0.899,1.05,0.899c0.565,0,1.174-0.242,1.823-0.725c0.089-0.065,0.17-0.13,0.248-0.194c0,0.003,0,0.007,0,0.01
		c-0.01,0.237,0.045,0.425,0.162,0.563c0.148,0.167,0.389,0.246,0.725,0.237c-0.044-0.104-0.062-0.297-0.051-0.577
		c0.009-0.32,0.121-0.624,0.334-0.909c0.193-0.262,0.373-0.392,0.537-0.392c0.108,0,0.158,0.091,0.148,0.273
		c-0.006,0.118-0.034,0.289-0.086,0.514c-0.051,0.224-0.079,0.417-0.085,0.58c-0.005,0.158,0.034,0.286,0.115,0.384
		c0.081,0.1,0.197,0.148,0.351,0.148c0.33,0,0.66-0.143,0.991-0.429C37.188,11.726,37.377,11.488,37.515,11.228z M23.642,14.039
		c-0.134,0-0.195-0.059-0.187-0.175c0.016-0.217,0.39-0.504,1.122-0.862C24.195,13.693,23.884,14.039,23.642,14.039z"/>
</g>
</svg>
